<svg width="305" height="73" viewBox="0 0 305 73" fill="none" xmlns="http://www.w3.org/2000/svg">
<path opacity="0.4" d="M55.5628 67.1176C65.8924 67.1176 74.2662 58.7202 74.2662 48.3614C74.2662 38.0027 65.8924 29.6052 55.5628 29.6052C45.2332 29.6052 36.8594 38.0027 36.8594 48.3614C36.8594 58.7202 45.2332 67.1176 55.5628 67.1176Z" fill="#E557E5"/>
<path opacity="0.4" d="M21.0862 48.9743C31.4158 48.9743 39.7896 40.5769 39.7896 30.2181C39.7896 19.8593 31.4158 11.4619 21.0862 11.4619C10.7566 11.4619 2.38281 19.8593 2.38281 30.2181C2.38281 40.5769 10.7566 48.9743 21.0862 48.9743Z" fill="#948BE8"/>
<path d="M51.8317 71.8374C49.2034 69.7534 44.8026 67.9759 38.018 65.6467C28.1162 62.2142 25.488 53.449 26.2826 46.4001C27.1383 39.1673 33.2505 33.7121 40.5852 33.7121C40.6463 33.7121 40.6463 33.7121 40.7074 33.7121C53.5431 33.8347 76.8307 36.8381 88.994 55.9008L92.9058 53.7555C95.5952 52.2844 96.9399 49.2197 96.2675 46.3388C96.0842 45.7259 95.9008 45.1129 95.5341 44.6226C94.6784 43.2128 94.0671 42.6611 93.7004 42.2934C93.0281 41.6191 92.7224 41.3126 92.2946 39.1673C92.1112 38.064 91.6834 37.3285 91.0721 37.022C90.2776 36.5929 89.3607 36.9607 89.3607 36.9607L88.5661 37.2672L88.9329 36.5317C88.9329 36.5317 90.0331 34.3863 89.3607 32.4862C88.994 31.4442 88.1383 30.6474 86.8547 30.0957C84.1042 28.9311 82.5762 28.0117 82.3928 27.3987C82.3317 27.2148 82.3928 27.0923 82.4539 27.031C82.5761 26.8471 84.2876 23.292 83.5541 21.3305C83.3707 20.8402 83.0651 20.5337 82.5762 20.3498C79.7034 19.1852 75.8527 19.2465 75.8527 19.2465C75.6693 19.2465 71.5742 19.553 69.9239 17.2238C69.0681 15.9366 69.1293 14.1591 70.1072 11.8912C69.0681 10.6653 61.6723 2.94212 57.2104 2.94212H57.1493H57.0882H57.0271C56.8437 2.81953 42.2966 -3.12606 27.5661 4.47449C14.7305 11.0943 5.68437 25.6825 0.611222 47.9325L0 47.8099C5.13427 25.376 14.3026 10.604 27.3216 3.92283C41.8076 -3.55513 56.1102 1.90011 57.2104 2.32917C62.2836 2.32917 70.4128 11.2169 70.7796 11.646L70.9018 11.7686L70.8407 11.9524C69.8627 14.0978 69.7405 15.7527 70.5351 16.856C71.9409 18.8788 75.8527 18.6336 75.9138 18.6336C76.0972 18.6336 79.9479 18.5723 82.9429 19.7369C83.5541 19.9821 83.982 20.4111 84.2265 21.0854C85.021 23.2307 83.3096 26.7858 83.1263 27.2148C83.1874 27.3374 83.6764 28.073 87.2214 29.4827C88.6884 30.0957 89.6663 31.0151 90.0942 32.1797C90.6443 33.7121 90.2164 35.3058 89.9108 36.1026C90.3387 36.0413 90.9499 36.0413 91.5 36.3478C92.2946 36.7768 92.8447 37.635 93.0892 38.9221C93.4559 40.9449 93.7004 41.1901 94.3116 41.6804C94.7395 42.1095 95.3507 42.6611 96.2675 44.1322C96.6343 44.6839 96.8788 45.3581 97.0621 46.0323C97.8567 49.1584 96.3287 52.5296 93.3948 54.1232L88.9329 56.575L88.7495 56.3299C76.7695 37.3285 53.5431 34.2637 40.7685 34.2024C40.7074 34.2024 40.7074 34.2024 40.6463 34.2024C33.6172 34.2637 27.7495 39.4738 26.8938 46.4614C26.0992 53.2651 28.6663 61.7238 38.2014 65.0337C45.0471 67.4242 49.509 69.2018 52.1373 71.3471L51.8317 71.8374Z" fill="white"/>
<path d="M81.8453 72.2051L81.2341 72.1438C81.9065 64.9723 86.0628 59.2719 87.8353 57.0653L74.8163 62.3979C63.2031 69.3855 55.3183 63.256 55.2572 63.1948L48.4726 56.4523C44.8053 52.7746 43.3995 47.442 44.8053 42.4158C46.2111 37.6348 48.5337 33.4055 50.9786 29.9117C42.9105 34.6314 39.8544 45.1741 39.7932 45.2967L39.5488 46.2161L39.2431 45.358C39.2431 45.2967 38.0818 42.1094 37.5317 38.0639C36.7983 32.3022 37.8373 28.5019 39.1209 26.1727C37.4706 27.0308 34.2922 28.2567 30.3193 27.0308L30.1359 26.9695L30.0748 26.7857C30.0748 26.6018 29.4636 22.9241 30.6249 18.1431C31.664 13.7299 34.5367 7.5391 41.9936 3.24847C46.4556 0.674087 51.7121 0.183729 56.3574 2.02257C56.663 2.14516 57.0297 2.26775 57.3353 2.45164L57.0908 3.00329C56.7852 2.8807 56.4796 2.75811 56.174 2.63552C51.7121 0.919266 46.6389 1.34833 42.3604 3.86142C29.2802 11.462 30.5027 24.8855 30.7471 26.6018C35.9425 28.1954 39.9155 25.1307 39.9155 25.0694L41.5047 23.7822L40.3433 25.4985C36.0648 31.6279 38.6319 41.4351 39.5488 44.3773C40.5267 41.5577 44.194 32.67 51.8343 28.931C55.9906 23.3532 60.3914 19.6755 62.164 18.2657C57.2742 18.8173 50.673 24.8855 50.5508 24.9468L48.7171 26.6631L50.0618 24.579C50.9175 23.2306 58.5578 11.7071 62.2251 12.3201C63.0197 12.4427 63.5698 13.1169 63.8754 14.2202C65.3423 19.9819 67.1149 20.5949 67.6039 20.6562C67.7261 20.6562 67.7872 20.6562 67.7872 20.6562L70.7211 20.7175L67.8484 21.2691C67.8484 21.2691 67.7261 21.2691 67.6039 21.2691C66.8704 21.2691 64.181 21.3917 60.7582 22.2498C56.9075 23.2306 55.5017 28.0116 55.5017 28.0728L55.4405 28.2567L55.2572 28.318C54.157 28.5632 53.179 28.9923 52.2011 29.4213C49.5117 33.099 46.9445 37.5735 45.4165 42.7836C44.0718 47.5646 45.4165 52.7133 48.9005 56.2071L55.6239 62.8883C55.8073 63.0109 57.6409 64.4206 60.8193 65.0336C63.8143 65.6465 68.6429 65.5852 74.5107 62.0301H74.5718L90.158 55.6555L89.1189 56.6975C89.1189 56.5749 82.7011 63.256 81.8453 72.2051ZM62.8363 17.4689C62.9586 17.4689 63.0197 17.4689 63.1419 17.4689L64.0588 17.5301L63.3253 18.0205C63.2642 18.0818 58.0077 21.7595 52.9956 28.1954C53.6069 27.9503 54.2792 27.7051 54.9516 27.5212C55.2572 26.6018 56.7852 22.4337 60.6359 21.453C63.0808 20.8401 65.159 20.5949 66.4425 20.5336C66.3814 20.4723 66.3203 20.411 66.2592 20.3497C65.0979 19.3077 64.181 17.2237 63.3864 14.2202C63.1419 13.3621 62.7752 12.8717 62.2862 12.7492C59.9025 12.3201 54.8293 18.756 52.0177 22.8628C54.4015 20.8401 59.169 17.4689 62.8363 17.4689Z" fill="white"/>
<path d="M77.8691 30.5247C77.4412 30.5247 77.0134 30.2183 76.5855 29.6666C75.0574 27.6439 75.1186 24.7017 76.83 22.8016C78.9081 20.4724 82.0254 19.553 82.1476 19.553L82.331 20.1659C82.2699 20.1659 79.2138 21.0853 77.2578 23.2307C75.7298 24.9469 75.6687 27.5826 77.0134 29.3601C77.3801 29.7892 77.6857 30.0344 77.9302 29.9731C78.1136 29.9118 78.5414 29.6666 78.9693 28.1342C80.4973 22.5564 82.9422 22.9242 83.0645 22.9242L83.3089 22.9855V23.2307C83.3089 23.3533 83.1867 26.3567 81.2308 28.1955L80.8029 27.7665C82.2087 26.418 82.5755 24.3953 82.6977 23.5984C82.0865 23.721 80.6807 24.5179 79.5805 28.3794C79.2138 29.7892 78.6637 30.5247 78.0524 30.7086C78.0524 30.5247 77.9302 30.5247 77.8691 30.5247Z" fill="white"/>
<path d="M73.9572 18.8786C73.835 14.0363 70.4121 12.0748 70.4121 12.0748L70.7177 11.5232C70.84 11.5845 74.4462 13.6685 74.6295 18.8786H73.9572Z" fill="white"/>
<path d="M79.459 42.2932L83.1874 32.1182C83.4931 31.2601 84.2876 30.4633 85.2656 30.0342C86.1824 29.6664 87.0993 29.6051 87.8327 29.9729L88.1383 30.0955L81.9039 39.9027L89.1774 36.225H89.2385C89.2997 36.225 90.95 36.3476 91.6223 37.3896C91.9279 37.8799 91.989 38.4316 91.7446 39.1058L91.6834 39.2897L79.459 42.2932ZM80.4981 41.3737L80.4369 41.4963L91.3167 38.8607C91.4389 38.4316 91.3778 38.1251 91.1945 37.8799C90.7666 37.2057 89.6664 37.0218 89.3608 37.0218L80.4981 41.3737ZM86.6714 30.402C86.3047 30.402 85.8768 30.4633 85.5101 30.6472C84.7155 31.0149 84.0432 31.6279 83.7987 32.3634L80.7426 40.6382L87.2826 30.4633C87.0993 30.402 86.8548 30.402 86.6714 30.402Z" fill="white"/>
<path d="M90.0326 35.4896L89.4213 35.367C89.6047 34.2024 88.5045 33.2217 88.1378 32.9765C87.3432 32.4249 86.732 32.3023 86.6708 32.3636L86.3652 31.8119C86.8542 31.5667 87.771 31.9345 88.3823 32.4249C89.5436 33.283 90.1548 34.4476 90.0326 35.4896Z" fill="white"/>
<path d="M43.2136 63.1948C42.7246 63.1948 42.2356 63.1948 41.7466 63.1335C38.2015 62.827 34.8398 61.3559 31.9059 59.0267C28.3609 56.1459 26.5883 53.4489 26.4049 50.8132C26.2827 48.6066 27.2606 47.442 28.1164 46.7678C29.6444 45.6645 32.0893 45.4806 34.1675 46.3387C37.2847 47.6259 40.6464 47.1968 40.7075 47.1968L42.2356 47.013L40.952 47.7485C40.952 47.7485 38.935 48.9131 38.8128 50.2616C38.7516 50.8132 38.9961 51.3036 39.6073 51.7326C41.441 53.265 42.9691 53.5102 43.7637 53.5715C44.1915 53.5715 44.5582 53.9393 44.5582 54.3683C44.5582 54.6135 44.4971 54.7974 44.3138 54.9813C44.1304 55.1652 43.947 55.2264 43.7025 55.2264C42.8468 55.2264 40.1574 55.2265 38.935 56.2685C39.7907 56.7588 41.3188 56.9427 43.1524 56.6975C45.2917 56.4523 47.0643 55.7781 47.3087 55.2877L47.8588 55.5329C47.431 56.391 45.2306 57.0653 43.2136 57.2492C42.1745 57.3718 39.8518 57.4944 38.446 56.6362C37.5903 57.6782 37.6514 58.1073 37.6514 58.1686L38.2015 58.659L37.4681 58.7203C37.4069 58.7203 30.9891 58.9041 29.8889 48.5453V48.3001L30.1334 48.2388C30.1945 48.2388 35.5733 46.4 38.7516 52.7747L38.8739 53.0811L38.5683 53.2037C38.5683 53.2037 37.8959 53.5102 37.7737 54.1231C37.6514 54.6135 37.8348 55.1652 38.3849 55.7781L38.446 55.8394C39.7907 54.6135 42.6023 54.5522 43.7637 54.5522C43.8248 54.5522 43.8859 54.5522 43.8859 54.4909C43.947 54.4296 43.947 54.3683 43.947 54.3683C43.947 54.2457 43.8859 54.1844 43.7637 54.1844C42.9079 54.1231 41.1965 53.878 39.2406 52.223C38.5071 51.6101 38.2015 50.9358 38.2627 50.2003C38.3238 49.2196 39.1184 48.3614 39.7907 47.8098C38.5071 47.8098 36.2456 47.7485 34.0452 46.8291C32.1504 46.0322 29.95 46.2161 28.5442 47.1968C27.5051 47.9937 26.955 49.1583 27.0773 50.6906C27.2606 53.1424 28.9721 55.7168 32.3338 58.4751C35.1454 60.743 38.446 62.1528 41.8689 62.4592C46.5753 62.8883 49.2647 61.3559 49.8759 57.8008L50.4871 57.9234C49.8148 61.4172 47.3087 63.1948 43.2136 63.1948ZM30.5613 48.7905C31.4781 57.004 35.7566 58.046 37.1013 58.1686C37.1013 57.6782 37.4069 57.1266 38.0182 56.3911C37.957 56.3298 37.957 56.2685 37.8959 56.2685C37.2847 55.4716 37.0402 54.7974 37.1625 54.1231C37.2847 53.5102 37.7737 53.1424 38.0182 52.9585C35.451 47.8711 31.5392 48.484 30.5613 48.7905Z" fill="white"/>
<path d="M58.3718 28.3181C57.455 28.3181 56.9049 28.1955 56.8438 28.1955L56.966 27.5825C56.966 27.5825 58.5552 27.9503 60.5722 27.4599C63.2616 26.7857 65.462 24.9469 67.1123 22.0047L67.2957 21.6982L67.6013 21.9434C67.6624 21.9434 68.5181 22.679 68.5181 23.9049C68.5181 24.9469 67.9069 25.9889 66.7456 27.0309L66.3788 26.5405C67.4179 25.6211 67.968 24.763 67.968 23.9049C67.968 23.3532 67.7235 22.9241 67.5401 22.679C64.6063 27.5825 60.5722 28.3181 58.3718 28.3181Z" fill="white"/>
<path d="M115.276 31.5054H116.56L124.933 49.6486H123.466L121.205 44.6225H110.57L108.308 49.6486H106.902L115.276 31.5054ZM120.594 43.4579L115.887 33.0377L111.12 43.4579H120.594Z" fill="white"/>
<path d="M131.291 31.6279H132.575L144.982 47.3194V31.6279H146.266V49.6486H145.288L132.636 33.6507V49.6486H131.352V31.6279H131.291Z" fill="white"/>
<path d="M154.15 31.6279H160.14C165.764 31.6279 169.675 35.4895 169.675 40.6383C169.675 45.7257 165.764 49.6486 160.14 49.6486H154.15V31.6279ZM160.14 48.484C165.152 48.484 168.331 45.0515 168.331 40.6996C168.331 36.4089 165.152 32.9151 160.14 32.9151H155.495V48.484H160.14Z" fill="white"/>
<path d="M176.826 31.6279H184.405C186.606 31.6279 188.378 32.3022 189.478 33.4055C190.334 34.2636 190.823 35.4895 190.823 36.7767C190.823 39.7801 188.562 41.4964 185.567 41.9255L191.496 49.6486H189.784L184.039 42.1706H178.171V49.6486H176.826V31.6279ZM184.222 41.006C187.217 41.006 189.478 39.4737 189.478 36.838C189.478 34.3862 187.584 32.9151 184.344 32.9151H178.232V41.006H184.222Z" fill="white"/>
<path d="M197.18 40.6996C197.18 35.796 200.786 31.3828 206.226 31.3828C211.666 31.3828 215.272 35.7347 215.272 40.6996C215.272 45.6032 211.666 50.0164 206.226 50.0164C200.786 50.0164 197.18 45.6645 197.18 40.6996ZM213.866 40.6996C213.866 36.2251 210.627 32.6087 206.165 32.6087C201.703 32.6087 198.524 36.2251 198.524 40.6996C198.524 45.1741 201.764 48.7905 206.226 48.7905C210.688 48.7905 213.866 45.1741 213.866 40.6996Z" fill="white"/>
<path d="M222.361 31.6279H223.645L230.857 42.2932L238.07 31.6279H239.353V49.6486H238.009V34.0184L230.918 44.3772H230.796L223.706 34.0184V49.7099H222.422V31.6279H222.361Z" fill="white"/>
<path d="M247.238 31.6279H260.013V32.8538H248.583V39.964H258.913V41.1899H248.583V48.4227H260.196V49.6486H247.299V31.6279H247.238Z" fill="white"/>
<path d="M267.043 31.6279H273.033C278.656 31.6279 282.568 35.4895 282.568 40.6383C282.568 45.7257 278.656 49.6486 273.033 49.6486H267.043V31.6279ZM273.033 48.484C278.045 48.484 281.223 45.0515 281.223 40.6996C281.223 36.4089 278.045 32.9151 273.033 32.9151H268.388V48.484H273.033Z" fill="white"/>
<path d="M295.343 31.5054H296.626L305 49.7099H303.533L301.271 44.6837H290.636L288.375 49.7099H286.969L295.343 31.5054ZM300.721 43.4579L296.015 33.0377L291.247 43.4579H300.721Z" fill="white"/>
</svg>
