<svg width="24" height="24" viewBox="0 0 24 24" fill="none" xmlns="http://www.w3.org/2000/svg">
<path d="M21.9453 2.76454C21.506 2.40022 20.9021 2.30647 20.373 2.52039L2.45604 9.75379C1.6679 10.0782 1.29198 10.9801 1.61638 11.7682C1.78417 12.1758 2.11815 12.4921 2.53417 12.6376L6.3994 13.9813L8.49413 20.9071C8.49834 20.9212 8.51128 20.9298 8.51671 20.9434C8.53838 20.9986 8.57006 21.0494 8.61003 21.0933C8.62493 21.1109 8.64116 21.1275 8.6585 21.1427C8.71068 21.186 8.77129 21.2181 8.83647 21.2368C8.84642 21.2397 8.85308 21.2485 8.86321 21.2509L8.86907 21.2506L8.872 21.2518C8.90538 21.2593 8.93944 21.2629 8.97356 21.2626C9.01818 21.261 9.06243 21.2533 9.10491 21.2397C9.11315 21.2374 9.12145 21.238 9.1295 21.2354C9.20208 21.2098 9.26763 21.1677 9.32103 21.1124C9.32726 21.1062 9.33672 21.1051 9.3427 21.0985L12.3564 17.7733L16.7529 21.1776C17.02 21.3865 17.3494 21.4999 17.6884 21.4999C18.4218 21.4998 19.0549 20.986 19.206 20.2684L22.4687 4.25086C22.5818 3.69679 22.3805 3.1255 21.9453 2.76454ZM9.58788 15.2948L8.88066 18.7316L7.40581 13.8538L14.7207 10.0447L9.72362 15.0419C9.65453 15.111 9.60735 15.199 9.58788 15.2948ZM18.2266 20.0673C18.1882 20.2514 18.0569 20.4023 17.8799 20.4657C17.7069 20.5322 17.5116 20.5026 17.3662 20.3876L12.6025 16.6991C12.3963 16.5394 12.1019 16.5654 11.9267 16.7587L9.8311 19.0709L10.5371 15.6434L17.7256 8.45399C17.9209 8.25898 17.9213 7.94257 17.7262 7.74726C17.572 7.59266 17.3353 7.55616 17.1416 7.65711L6.77825 13.0538L2.86132 11.6923C2.64781 11.622 2.50261 11.4238 2.49999 11.1991C2.48967 10.9728 2.62364 10.7647 2.83397 10.6806L20.748 3.44813C20.9352 3.36872 21.1511 3.40199 21.3057 3.53407C21.4595 3.65821 21.5301 3.85847 21.4883 4.05164L18.2266 20.0673Z" fill="white"/>
</svg>
