<svg width="24" height="24" viewBox="0 0 24 24" fill="none" xmlns="http://www.w3.org/2000/svg">
<path d="M12.001 2.00001C10.1875 2.00019 8.40813 2.49355 6.85342 3.42728C5.29871 4.361 4.0272 5.69994 3.17497 7.30077C2.32274 8.9016 1.92189 10.7041 2.01532 12.5152C2.10875 14.3263 2.69295 16.078 3.70538 17.5826L2.00104 22L6.54886 20.3739C7.85315 21.2253 9.33828 21.7602 10.8859 21.936C12.4335 22.1119 14.0008 21.9238 15.4628 21.3868C16.9249 20.8497 18.2412 19.9786 19.3071 18.8428C20.3729 17.707 21.1586 16.3379 21.6017 14.8447C22.0448 13.3515 22.133 11.7755 21.8592 10.2422C21.5854 8.70885 20.9572 7.2607 20.0247 6.01312C19.0922 4.76554 17.8812 3.75304 16.4882 3.0563C15.0951 2.35956 13.5586 1.99785 12.001 2.00001Z" stroke="white" stroke-linecap="round" stroke-linejoin="round"/>
<path d="M9.82707 14.1738C10.9575 15.3042 13.4532 16.7825 14.6097 16.7825C15.117 16.7877 15.6105 16.6175 16.0067 16.3005C16.4029 15.9836 16.6773 15.5395 16.7836 15.0434V14.1738C16.7836 14.1738 15.714 13.6521 15.0445 13.3042C14.3749 12.9564 13.3053 14.1738 13.3053 14.1738C12.4915 13.9087 11.7483 13.4628 11.1314 12.8695C10.5381 12.2526 10.0922 11.5093 9.82707 10.6955C9.82707 10.6955 11.0445 9.62598 10.6966 8.95641C10.3488 8.28685 9.82707 7.21729 9.82707 7.21729H8.95751C8.46141 7.32354 8.01729 7.59799 7.70035 7.99417C7.38341 8.39034 7.21314 8.88388 7.21838 9.3912C7.21838 10.5477 8.69664 13.0434 9.82707 14.1738Z" stroke="white" stroke-linecap="round" stroke-linejoin="round"/>
</svg>
